<?xml version="1.0" encoding="UTF-8"?>
<!DOCTYPE svg PUBLIC "-//W3C//DTD SVG 1.1//EN" "http://www.w3.org/Graphics/SVG/1.1/DTD/svg11.dtd">
<svg xmlns="http://www.w3.org/2000/svg" version="1.1" width="408px" height="408px" style="shape-rendering:geometricPrecision; text-rendering:geometricPrecision; image-rendering:optimizeQuality; fill-rule:evenodd; clip-rule:evenodd" xmlns:xlink="http://www.w3.org/1999/xlink">
<g><path style="opacity:1" fill="#fefefe" d="M -0.5,-0.5 C 135.5,-0.5 271.5,-0.5 407.5,-0.5C 407.5,135.5 407.5,271.5 407.5,407.5C 271.5,407.5 135.5,407.5 -0.5,407.5C -0.5,271.5 -0.5,135.5 -0.5,-0.5 Z"/></g>
<g><path style="opacity:1" fill="#070707" d="M 144.5,91.5 C 172.325,87.8649 196.658,95.1982 217.5,113.5C 222.685,109.149 227.351,104.316 231.5,99C 252.831,98.5 274.164,98.3334 295.5,98.5C 295.333,133.168 295.5,167.835 296,202.5C 306.121,187.354 319.621,183.521 336.5,191C 340,193.167 342.833,196 345,199.5C 347.133,204.732 348.966,210.066 350.5,215.5C 348.997,216.557 347.33,217.224 345.5,217.5C 341.377,215.605 337.377,213.438 333.5,211C 328.265,209.534 324.099,211.034 321,215.5C 319.176,247.368 332.509,256.368 361,242.5C 363.3,243.439 364.3,245.106 364,247.5C 356.788,252.024 348.955,254.691 340.5,255.5C 325.721,254.222 317.221,246.222 315,231.5C 314.085,225.056 314.419,218.723 316,212.5C 320.536,205.156 327.036,202.656 335.5,205C 341.927,210.138 343.093,208.971 339,201.5C 327.356,190.912 315.69,190.912 304,201.5C 291.719,218.782 279.052,235.782 266,252.5C 257.395,262.757 246.895,265.257 234.5,260C 233,258.5 231.5,257 230,255.5C 220.137,265.697 209.971,275.53 199.5,285C 172.883,299.139 144.883,302.473 115.5,295C 81.9234,284.086 61.7568,261.253 55,226.5C 47.5925,182.186 60.4259,145.02 93.5,115C 108.812,103.342 125.812,95.5083 144.5,91.5 Z"/></g>
<g><path style="opacity:1" fill="#fdfafa" d="M 242.5,112.5 C 255.784,111.536 269.117,111.203 282.5,111.5C 283.664,147.331 283.831,183.331 283,219.5C 274.214,231.288 265.047,242.788 255.5,254C 245.137,258.714 236.47,256.547 229.5,247.5C 227.833,248.833 226.167,250.167 224.5,251.5C 223.01,249.874 221.51,248.208 220,246.5C 199.47,277.337 170.637,290.171 133.5,285C 97.9577,276.792 77.7911,254.626 73,218.5C 67.7872,172.764 84.6206,137.931 123.5,114C 144.841,103.358 166.841,101.691 189.5,109C 202.297,115.213 212.297,124.379 219.5,136.5C 227.188,128.479 234.855,120.479 242.5,112.5 Z"/></g>
<g><path style="opacity:1" fill="#a3a1a1" d="M 282.5,111.5 C 269.117,111.203 255.784,111.536 242.5,112.5C 242.611,111.883 242.944,111.383 243.5,111C 256.673,110.173 269.673,110.34 282.5,111.5 Z"/></g>
<g><path style="opacity:1" fill="#070707" d="M 191.5,150.5 C 200.403,149.646 208.57,151.646 216,156.5C 216.667,175.833 216.667,195.167 216,214.5C 201.055,229.892 182.888,237.392 161.5,237C 150.896,231.243 145.896,222.243 146.5,210C 150.417,181.607 165.417,161.773 191.5,150.5 Z"/></g>
<g><path style="opacity:1" fill="#fbfbfb" d="M 189.5,164.5 C 192.167,164.5 194.833,164.5 197.5,164.5C 197.833,179.515 197.499,194.515 196.5,209.5C 187.697,216.485 177.863,221.485 167,224.5C 163.154,224.324 160.82,222.324 160,218.5C 158.201,204.233 161.867,191.566 171,180.5C 176.474,174.18 182.641,168.847 189.5,164.5 Z"/></g>
</svg>
